<svg width="150" height="150" viewBox="0 0 150 150" fill="none" xmlns="http://www.w3.org/2000/svg">
<circle cx="75" cy="75" r="75" fill="#FF9B52"/>
<path d="M43.95 77.94C43.95 78.7467 43.85 79.4733 43.65 80.12C43.4567 80.76 43.1633 81.3067 42.77 81.76C42.3833 82.2067 41.9 82.5533 41.32 82.8C40.7467 83.04 40.08 83.16 39.32 83.16C38.9733 83.16 38.63 83.1367 38.29 83.09C37.95 83.05 37.5967 82.9833 37.23 82.89L37.35 81.49C37.37 81.3567 37.42 81.25 37.5 81.17C37.5867 81.09 37.71 81.05 37.87 81.05C37.99 81.05 38.1433 81.0767 38.33 81.13C38.5233 81.1767 38.7733 81.2 39.08 81.2C39.4867 81.2 39.8467 81.14 40.16 81.02C40.48 80.9 40.7467 80.7133 40.96 80.46C41.18 80.2 41.3433 79.87 41.45 79.47C41.5633 79.0633 41.62 78.5733 41.62 78V68.6H43.95V77.94ZM50.9036 72.64C51.6569 72.64 52.3369 72.7633 52.9436 73.01C53.5569 73.2567 54.0769 73.6067 54.5036 74.06C54.9369 74.5133 55.2703 75.0633 55.5036 75.71C55.7369 76.3567 55.8536 77.0833 55.8536 77.89C55.8536 78.6967 55.7369 79.4233 55.5036 80.07C55.2703 80.7167 54.9369 81.27 54.5036 81.73C54.0769 82.1833 53.5569 82.5333 52.9436 82.78C52.3369 83.0267 51.6569 83.15 50.9036 83.15C50.1436 83.15 49.4569 83.0267 48.8436 82.78C48.2369 82.5333 47.7169 82.1833 47.2836 81.73C46.8503 81.27 46.5169 80.7167 46.2836 80.07C46.0503 79.4233 45.9336 78.6967 45.9336 77.89C45.9336 77.0833 46.0503 76.3567 46.2836 75.71C46.5169 75.0633 46.8503 74.5133 47.2836 74.06C47.7169 73.6067 48.2369 73.2567 48.8436 73.01C49.4569 72.7633 50.1436 72.64 50.9036 72.64ZM50.9036 81.47C51.8236 81.47 52.5069 81.1633 52.9536 80.55C53.4069 79.93 53.6336 79.0467 53.6336 77.9C53.6336 76.7533 53.4069 75.87 52.9536 75.25C52.5069 74.6233 51.8236 74.31 50.9036 74.31C49.9703 74.31 49.2769 74.6233 48.8236 75.25C48.3703 75.87 48.1436 76.7533 48.1436 77.9C48.1436 79.0467 48.3703 79.93 48.8236 80.55C49.2769 81.1633 49.9703 81.47 50.9036 81.47ZM60.1594 72.8V83H58.0094V72.8H60.1594ZM60.5194 69.72C60.5194 69.9133 60.4794 70.0967 60.3994 70.27C60.326 70.4433 60.2227 70.5967 60.0894 70.73C59.956 70.8567 59.7994 70.96 59.6194 71.04C59.446 71.1133 59.2594 71.15 59.0594 71.15C58.866 71.15 58.6827 71.1133 58.5094 71.04C58.3427 70.96 58.196 70.8567 58.0694 70.73C57.9427 70.5967 57.8394 70.4433 57.7594 70.27C57.686 70.0967 57.6494 69.9133 57.6494 69.72C57.6494 69.52 57.686 69.3333 57.7594 69.16C57.8394 68.9867 57.9427 68.8367 58.0694 68.71C58.196 68.5767 58.3427 68.4733 58.5094 68.4C58.6827 68.32 58.866 68.28 59.0594 68.28C59.2594 68.28 59.446 68.32 59.6194 68.4C59.7994 68.4733 59.956 68.5767 60.0894 68.71C60.2227 68.8367 60.326 68.9867 60.3994 69.16C60.4794 69.3333 60.5194 69.52 60.5194 69.72ZM64.8708 74.15C65.0908 73.9233 65.3174 73.72 65.5508 73.54C65.7908 73.3533 66.0441 73.1933 66.3108 73.06C66.5774 72.9267 66.8608 72.8233 67.1608 72.75C67.4608 72.6767 67.7874 72.64 68.1408 72.64C68.7008 72.64 69.1908 72.7333 69.6108 72.92C70.0374 73.1067 70.3941 73.37 70.6808 73.71C70.9741 74.05 71.1941 74.46 71.3408 74.94C71.4874 75.4133 71.5608 75.9367 71.5608 76.51V83H69.4208V76.51C69.4208 75.8233 69.2608 75.29 68.9408 74.91C68.6274 74.53 68.1474 74.34 67.5008 74.34C67.0208 74.34 66.5741 74.45 66.1608 74.67C65.7541 74.89 65.3708 75.19 65.0108 75.57V83H62.8608V72.8H64.1608C64.4541 72.8 64.6408 72.9367 64.7208 73.21L64.8708 74.15ZM88.7567 70.55H84.2667V83H81.9367V70.55H77.4367V68.6H88.7567V70.55ZM99.0808 81.04V83H90.7608V68.6H93.1008V81.04H99.0808ZM108.713 77.6L106.733 72.34C106.573 71.9333 106.409 71.4167 106.243 70.79C106.169 71.1033 106.089 71.3933 106.003 71.66C105.916 71.92 105.836 72.15 105.763 72.35L103.783 77.6H108.713ZM113.143 83H111.333C111.126 83 110.959 82.95 110.833 82.85C110.706 82.7433 110.609 82.6133 110.543 82.46L109.343 79.28H103.143L101.943 82.46C101.889 82.5933 101.796 82.7167 101.663 82.83C101.529 82.9433 101.363 83 101.163 83H99.3528L105.063 68.6H107.433L113.143 83Z" fill="white"/>
</svg>
