<svg width="830" height="45" viewBox="0 0 830 45" fill="none" xmlns="http://www.w3.org/2000/svg">
<g clip-path="url(#clip0_1271_1642)">
<rect width="150" height="45" rx="6" fill="#26559A"/>
<path d="M0 0H150V45H0" fill="#26559A"/>
<path d="M76.6715 22.4419C75.8745 22.4419 75.3006 22.7036 74.718 22.9701V29.0058C75.2766 29.0605 75.5944 29.0605 76.1251 29.0605C78.0377 29.0605 78.2993 28.1818 78.2993 26.957V24.0736C78.2993 23.1688 78 22.4419 76.6715 22.4419ZM63.9721 22.1123C62.6451 22.1123 62.3434 22.8424 62.3434 23.7464V24.2537H65.6007V23.7464C65.6003 22.842 65.2974 22.1123 63.9721 22.1123ZM39.3714 28.3951C39.3714 29.1094 39.7077 29.4812 40.4509 29.4812C41.2483 29.4812 41.7197 29.221 42.3018 28.9525V27.5219H40.5585C39.7336 27.5223 39.3714 27.6752 39.3714 28.3951ZM89.0252 22.4419C87.6963 22.4419 87.2359 23.1688 87.2359 24.0728V27.376C87.2359 28.2835 87.6963 29.0113 89.0252 29.0113C90.3502 29.0113 90.8145 28.2827 90.8145 27.376V24.0728C90.8141 23.1688 90.3502 22.4419 89.0252 22.4419ZM32.8585 32.0973H28.9531V22.6212H27V19.3551H28.9531V17.3946C28.9531 14.7304 30.0553 13.146 33.1853 13.146H35.7928V16.4122H34.1642C32.9449 16.4122 32.864 16.8687 32.864 17.7202L32.8585 19.3547H35.8117L35.466 22.6209H32.8585V32.0973ZM46.21 32.1217H42.9543L42.8145 31.2962C41.3273 32.1217 40.0003 32.2558 39.1251 32.2558C36.7368 32.2558 35.4664 30.6572 35.4664 28.4463C35.4664 25.8385 36.9489 24.907 39.602 24.907H42.3022V24.3432C42.3022 23.0111 42.1498 22.6209 40.1072 22.6209H36.7666L37.0935 19.3547H40.7443C45.2272 19.3547 46.21 20.7751 46.21 24.3696V32.1217ZM57.2812 22.8609C55.2554 22.5124 54.6733 22.436 53.6991 22.436C51.9479 22.436 51.4184 22.8235 51.4184 24.3133V27.1328C51.4184 28.623 51.9479 29.0117 53.6991 29.0117C54.6733 29.0117 55.2554 28.9348 57.2812 28.5851V31.7697C55.506 32.1694 54.3504 32.2739 53.3738 32.2739C49.1789 32.2739 47.513 30.0635 47.513 26.8694V24.5813C47.513 21.3857 49.1789 19.1706 53.3738 19.1706C54.3504 19.1706 55.5068 19.2766 57.2812 19.676V22.8609ZM69.5061 26.8694H62.343V27.1328C62.343 28.623 62.8726 29.0117 64.623 29.0117C66.1974 29.0117 67.1574 28.9348 69.1797 28.5851V31.7697C67.2297 32.1694 66.2139 32.2739 64.2993 32.2739C60.1048 32.2739 58.4369 30.0635 58.4369 26.8694V24.2533C58.4369 21.4599 59.675 19.1706 63.9725 19.1706C68.2707 19.1706 69.5065 21.4326 69.5065 24.2533L69.5061 26.8694ZM82.2051 26.9294C82.2051 30.0162 81.3252 32.2676 75.9935 32.2676C74.0695 32.2676 72.9385 32.0973 70.813 31.7693V14.1264L74.718 13.474V19.6448C75.5614 19.3302 76.6546 19.171 77.6488 19.171C81.555 19.171 82.2055 20.9265 82.2055 23.7456V26.9294H82.2051ZM94.7242 26.9968C94.7242 29.6594 93.6271 32.2424 89.0382 32.2424C84.4465 32.2424 83.3294 29.6594 83.3294 26.9968V24.426C83.3294 21.7626 84.4465 19.1792 89.0382 19.1792C93.6271 19.1792 94.7242 21.7626 94.7242 24.426V26.9968ZM107.233 26.9968C107.233 29.6594 106.135 32.2424 101.547 32.2424C96.9558 32.2424 95.8379 29.6594 95.8379 26.9968V24.426C95.8379 21.7626 96.9558 19.1792 101.547 19.1792C106.135 19.1792 107.233 21.7626 107.233 24.426V26.9968ZM120.072 32.0973H115.838L112.258 26.1086V32.0973H108.353V14.1264L112.258 13.474V25.043L115.838 19.3551H120.072L116.163 25.5618L120.072 32.0973ZM101.534 22.4419C100.208 22.4419 99.7472 23.1688 99.7472 24.0728V27.376C99.7472 28.2835 100.208 29.0113 101.534 29.0113C102.859 29.0113 103.328 28.2827 103.328 27.376V24.0728C103.328 23.1688 102.859 22.4419 101.534 22.4419ZM122.302 29.8628C122.96 29.8628 123.484 30.4001 123.484 31.0711C123.484 31.7527 122.96 32.2845 122.297 32.2845C121.639 32.2845 121.104 31.7523 121.104 31.0711C121.104 30.4001 121.639 29.8628 122.297 29.8628H122.302ZM122.296 30.0508C121.767 30.0508 121.333 30.5074 121.333 31.0719C121.333 31.6463 121.767 32.0981 122.302 32.0981C122.837 32.1036 123.265 31.6463 123.265 31.077C123.265 30.5082 122.837 30.0508 122.302 30.0508H122.296ZM122.071 31.7756H121.858V30.4265C121.97 30.4104 122.077 30.395 122.237 30.395C122.441 30.395 122.574 30.4372 122.655 30.4967C122.735 30.5562 122.777 30.6473 122.777 30.7762C122.777 30.9532 122.66 31.0609 122.516 31.1042V31.1149C122.634 31.1366 122.714 31.2426 122.74 31.4413C122.772 31.6514 122.804 31.7322 122.826 31.7756H122.601C122.569 31.733 122.536 31.6084 122.511 31.4322C122.478 31.2596 122.393 31.1949 122.221 31.1949H122.071V31.7756H122.071ZM122.071 31.0285H122.227C122.402 31.0285 122.553 30.9639 122.553 30.7975C122.553 30.6785 122.467 30.5606 122.227 30.5606C122.157 30.5606 122.108 30.5665 122.071 30.5712V31.0285Z" fill="white"/>
</g>
<rect x="170" width="150" height="45" rx="6" fill="#7463B8"/>
<path d="M200.73 9C199.815 9 198.63 9.96164 197.93 10.6018C196.393 11.9552 195 14.4439 195 16.4414C195 19.2798 197.434 20.3512 198.05 20.3512C198.253 20.3512 198.426 20.2473 198.426 19.9742C198.426 19.7601 198.289 19.5819 198.153 19.3989C197.589 18.5442 197.408 17.7286 197.408 16.6285C197.408 14.3349 198.475 12.2325 199.36 11.2705C199.523 11.0964 199.892 10.7203 200.002 10.7203C200.111 10.7203 200.139 10.8087 200.139 11.0821L200.036 26.0944C200.036 28.4412 199.353 29.3735 199.353 29.9261C199.353 30.1689 199.459 30.2319 199.661 30.2319C200.62 30.2319 201.575 29.0736 201.845 28.6512C202.684 27.2141 202.89 26.0922 202.89 22.8563V10.2415C202.89 9.9 202.793 9.7524 202.466 9.54187C201.988 9.24061 201.44 9 200.73 9ZM228.132 9.04189C227.681 9.04189 227.488 9.27555 227.467 9.99856L227.367 12.9923L224.726 12.9015C224.566 12.8975 224.494 12.9477 224.424 13.0873C224.2 13.5042 224.082 13.8308 224.082 14.3748C224.082 14.8177 224.284 14.8649 224.465 14.8649L227.212 14.9431L227.203 20.6627C227.203 21.8757 226.431 23.4494 225.062 24.7583C225.062 24.7583 225.179 24.3631 225.173 23.9485C225.173 22.7749 224.411 21.7114 223.396 20.9588L220.917 19.11C221.437 18.5141 222.317 17.3321 222.317 16.334C222.317 15.5602 221.826 15.2351 220.912 15.2351C219.621 15.2351 218.123 16.4075 218.123 18.1465C218.123 18.7804 218.408 19.3509 218.84 19.7873C218.243 20.9103 217.399 22.3879 216.772 23.4402C216.298 24.2459 215.497 25.4803 215.023 25.4803C214.673 25.4803 214.511 24.9349 214.511 22.8397C214.511 21.099 214.636 19.2064 214.699 17.3897C214.699 16.9733 214.63 16.5892 214.085 16.2126C213.583 15.894 212.964 15.449 212.326 15.449C210.908 15.449 209.942 16.743 209.279 18.0084C208.593 19.3199 208.222 20.425 207.699 22.0285L207.757 16.5101C207.774 16.1166 207.674 15.9638 207.357 15.8299C206.945 15.6567 206.338 15.457 205.801 15.457C205.351 15.457 205.296 15.6492 205.296 16.1175L205.236 22.7391L205.229 25.293C205.229 27.5955 205.52 27.9795 206.898 27.9795C207.661 27.9795 207.905 27.8906 207.92 27.2618C207.941 26.8459 208.142 25.8383 208.413 24.8278C209.207 21.8452 210.147 19.4862 211.769 17.6882C211.938 17.5137 212.068 17.5761 212.042 17.8236C212.042 17.8236 211.785 21.86 211.785 23.511C211.785 26.4474 212.241 27.9796 213.714 27.9796C215.161 27.9796 216.581 26.1372 217.356 24.8935L219.843 20.7686C221.455 22.1302 222.579 23.186 222.579 24.4703C222.579 25.2686 222.071 26.0495 221.297 26.0495C220.331 26.0495 219.713 25.0385 219.06 25.0385C218.518 25.0385 217.822 26.0761 217.822 26.6654C217.822 27.2216 219.046 28.0086 221.243 28.0086C224.485 28.0086 226.224 25.8021 227.268 23.3587C227.468 26.2587 228.633 27.9527 230.451 27.9527C231.643 27.9527 233.02 26.4592 233.647 24.6349C233.647 24.6349 233.709 25.1085 234.185 26.0787C234.84 27.3458 235.836 27.9276 237.073 27.9276C238.612 27.9276 239.928 27.0025 240.732 25.4504C240.854 26.6265 241.849 27.9218 243.451 27.9218C244.456 27.9218 245.373 27.158 245.974 25.8999C245.974 25.8999 246.754 27.9778 249.008 27.9778C250.274 27.9778 251.773 26.8148 252.131 25.9698L252.17 27.1987L248.826 30.2568C247.855 31.1916 246.822 32.5346 246.822 34.0215C246.822 35.9126 248.623 37 250.207 37C251.854 37 252.947 35.9652 253.546 35.0982C254.299 33.9762 254.618 31.8617 254.618 29.7947L254.543 26.6865C256.797 24.2297 258.561 20.8339 259.346 18.4312L261.057 18.3865C261.389 18.3644 261.372 18.4938 261.326 18.6854C261.026 19.9454 260.763 21.3724 260.763 22.7935C260.763 25.1413 261.308 26.163 262.092 26.998C262.774 27.6976 263.452 27.9335 264.165 27.9335C265.56 27.9335 266.436 26.791 266.714 26.0708C267.369 27.3379 268.334 27.928 269.571 27.928C271.11 27.928 272.426 27.0029 273.23 25.4508C273.351 26.6269 274.347 27.9222 275.949 27.9222C277.145 27.9222 277.839 27.2376 278.385 25.9477C278.396 26.3626 278.412 26.8049 278.424 27.2196C278.439 27.4342 278.612 27.57 278.767 27.626C279.275 27.8169 279.722 27.9124 280.123 27.9124C281.168 27.9124 281.396 27.6994 281.396 27.0214C281.396 25.9032 281.429 24.1365 281.749 22.718C282.089 21.3057 282.603 19.7069 283.311 18.5945C283.375 18.4795 283.531 18.5097 283.538 18.649C283.639 21.0291 283.8 25.0583 284.43 26.1014C284.742 26.5989 285.223 26.9615 285.943 26.9615C286.28 26.9615 286.694 26.8187 286.8 26.7297C286.908 26.6467 286.962 26.5545 286.955 26.3835C286.955 23.3407 287.912 20.3949 288.87 18.4144C288.897 18.3556 288.971 18.3511 288.969 18.4284L288.915 20.6208C288.915 24.2216 289.177 26.4964 290.991 27.5901C291.348 27.7879 291.75 27.8913 292.158 27.8901C293.086 27.8901 293.928 27.3762 294.344 26.5496C294.683 25.9073 295 24.671 295 23.9707C295 23.6996 295.003 23.2584 294.555 23.2584C294.309 23.2584 294.162 23.4381 294.103 23.7095C293.96 24.2977 293.843 24.8021 293.621 25.3837C293.409 25.9389 293.093 26.2622 292.719 26.2622C292.278 26.2622 292.055 25.9186 291.927 25.7063C291.365 24.8566 291.32 22.9048 291.32 21.2756L291.456 17.0823C291.456 16.7354 291.31 16.3202 290.77 16.0141C290.407 15.8072 289.491 15.4178 288.929 15.4178C288.409 15.4178 288.156 15.7102 287.969 16.1395C287.616 16.9106 286.439 19.935 286.123 22.3939C286.111 22.4587 286.03 22.4724 286.024 22.3897C285.86 20.6508 285.776 18.5557 285.778 17.1423C285.778 16.715 285.672 16.1041 284.758 15.7082C284.314 15.5255 283.946 15.4136 283.498 15.4136C282.941 15.4136 282.821 15.6838 282.622 16.0419C281.991 17.1975 281.555 18.7044 280.901 20.6053L280.911 16.2557C280.911 16.0523 280.785 15.7857 280.425 15.7139C279.532 15.5104 279.119 15.418 278.766 15.418C278.51 15.418 278.369 15.6206 278.369 15.8397L278.321 23.2558C278.149 24.1637 277.449 26.3307 276.455 26.3307C275.64 26.3307 275.26 25.5117 275.26 22.0886L275.408 16.5254C275.408 16.174 275.175 16.0264 274.836 15.8776C274.351 15.6866 273.966 15.6108 273.473 15.6108C272.855 15.6108 272.642 15.9043 272.768 16.6093C272.088 15.6973 271.408 15.1933 270.208 15.1933C267.797 15.1933 265.98 18.0684 265.98 22.2465C265.957 23.418 266.242 24.5825 266.242 24.5825C266.024 25.5548 265.511 26.3474 264.803 26.3474C263.909 26.3474 263.34 25.0947 263.34 22.9235C263.34 20.7459 264.176 18.2899 264.176 17.6243C264.176 16.8503 263.665 16.3607 262.76 16.3607C262.306 16.3607 260.624 16.7391 259.762 16.8632C259.762 16.8632 259.859 16.456 259.852 16.1358C259.852 15.3726 259.491 14.8944 258.594 14.8944C257.499 14.8944 256.695 15.67 256.695 16.9933C256.695 17.587 257.04 18.1363 257.496 18.4314C256.904 20.8819 255.94 22.7044 254.521 24.7403L254.64 16.4961C254.64 16.2281 254.568 16.0616 254.039 15.8578C253.759 15.7379 253.303 15.5995 252.728 15.5995C251.894 15.5995 251.95 16.1896 251.994 16.6314C251.613 15.961 250.778 15.1652 249.49 15.1652C245.981 15.1652 244.904 20.4717 245.432 24.2402C245.432 24.6997 244.98 26.3307 243.958 26.3307C243.142 26.3307 242.762 25.5117 242.762 22.0886L242.911 16.5254C242.911 16.1739 242.677 16.0263 242.338 15.8776C241.853 15.6866 241.469 15.6108 240.976 15.6108C240.358 15.6108 240.146 15.9043 240.271 16.6092C239.591 15.6972 238.91 15.1932 237.709 15.1932C235.299 15.1932 233.458 17.8226 233.458 22.0005C233.458 23.5953 232.073 26.029 231.102 26.029C230.563 26.029 229.988 25.047 229.988 22.5381C229.991 20.8279 230.226 15.0061 230.226 15.0061L233.616 14.9516C233.778 14.9501 233.871 14.7748 233.931 14.6668C234.087 14.3536 234.162 14.1451 234.162 13.7704C234.162 13.4323 234.094 13.3088 233.657 13.2844L230.278 13.0833L230.422 9.96253C230.432 9.7655 230.312 9.63706 230.095 9.54087C229.441 9.28726 228.639 9.04199 228.132 9.04189ZM238.39 17.219C239.294 17.219 240.211 18.0363 240.211 20.936C240.211 24.587 238.869 26.2857 237.838 26.2857C236.871 26.2857 236.137 24.9323 236.137 22.2739C236.137 19.5868 236.854 17.219 238.39 17.219ZM270.936 17.219C271.839 17.219 272.756 18.0363 272.756 20.936C272.756 24.587 271.415 26.2857 270.384 26.2857C269.417 26.2857 268.682 24.9323 268.682 22.2739C268.683 19.5868 269.399 17.219 270.936 17.219ZM250.293 17.2358C251.473 17.2358 251.994 18.4412 251.994 20.7782C251.994 24.3017 250.938 26.3078 249.655 26.3078C248.836 26.3078 247.895 24.9744 247.944 22.3519C247.944 20.6751 248.496 17.2358 250.293 17.2358ZM252.29 29.0226V30.4105C252.29 35.0158 251.052 35.8018 250.058 35.8018C249.681 35.8018 248.758 35.5196 248.758 34.3803C248.758 32.7877 250.437 30.9759 250.959 30.416L252.29 29.0226Z" fill="white"/>
<rect x="340" width="150" height="45" rx="6" fill="white"/>
<path d="M455.773 26.723C455.759 26.726 455.745 26.725 455.731 26.727L455.803 26.717C455.793 26.718 455.783 26.723 455.773 26.725V26.723ZM407.351 30.123C407.354 30.349 407.31 30.5733 407.223 30.7818C407.135 30.9902 407.006 31.1786 406.843 31.335C406.685 31.4976 406.496 31.6263 406.287 31.7132C406.077 31.8 405.853 31.8432 405.626 31.84H402.209C401.531 31.8504 400.859 31.7222 400.233 31.4632C399.607 31.2042 399.04 30.82 398.568 30.334C397.56 29.329 397.068 28.12 397.068 26.704V19.821C397.068 19.336 397.235 18.929 397.571 18.598C397.907 18.267 398.317 18.103 398.801 18.103C399.026 18.0997 399.25 18.1428 399.458 18.2297C399.665 18.3166 399.853 18.4454 400.009 18.608C400.345 18.944 400.514 19.348 400.514 19.82V22.313H405.366C405.806 22.313 406.184 22.469 406.499 22.781C406.814 23.093 406.971 23.467 406.971 23.905C406.974 24.1146 406.934 24.3224 406.853 24.5158C406.772 24.7091 406.652 24.8838 406.501 25.029C406.354 25.1796 406.178 25.2987 405.984 25.3792C405.79 25.4596 405.581 25.4997 405.371 25.497H400.514V26.703C400.514 27.176 400.679 27.578 401.011 27.909C401.343 28.24 401.745 28.405 402.219 28.405H405.619C406.092 28.405 406.499 28.575 406.836 28.911C406.999 29.0674 407.128 29.2558 407.216 29.4642C407.303 29.6727 407.347 29.897 407.344 30.123H407.351ZM447.267 30.123C447.27 30.349 447.227 30.5732 447.139 30.7816C447.052 30.9901 446.923 31.1785 446.76 31.335C446.602 31.4976 446.413 31.6262 446.204 31.7131C445.995 31.7999 445.77 31.8431 445.544 31.84H443.996C443.318 31.8506 442.646 31.7224 442.019 31.4634C441.393 31.2044 440.826 30.8201 440.354 30.334C439.867 29.8645 439.482 29.3001 439.222 28.6757C438.963 28.0513 438.834 27.3802 438.844 26.704V19.821C438.844 19.336 439.011 18.929 439.347 18.598C439.683 18.267 440.092 18.103 440.577 18.103C440.802 18.0997 441.026 18.1428 441.234 18.2297C441.441 18.3166 441.629 18.4454 441.785 18.608C441.947 18.7648 442.076 18.9533 442.163 19.1617C442.249 19.3702 442.292 19.5942 442.289 19.82V22.313H445.282C445.493 22.31 445.702 22.35 445.896 22.4304C446.091 22.5109 446.267 22.6302 446.414 22.781C446.729 23.093 446.886 23.467 446.886 23.905C446.889 24.1146 446.849 24.3224 446.768 24.5158C446.687 24.7091 446.567 24.8838 446.416 25.029C446.269 25.1796 446.093 25.2987 445.899 25.3792C445.705 25.4596 445.496 25.4997 445.286 25.497H442.289V26.703C442.289 27.176 442.454 27.578 442.786 27.909C443.118 28.24 443.52 28.405 443.994 28.405H445.544C446.017 28.405 446.424 28.575 446.761 28.911C446.924 29.0675 447.053 29.2559 447.14 29.4644C447.228 29.6728 447.271 29.897 447.268 30.123H447.267ZM438.267 30.123C438.267 30.593 438.097 30.998 437.76 31.335C437.602 31.4977 437.413 31.6264 437.204 31.7133C436.994 31.8001 436.77 31.8432 436.543 31.84H434.995C433.575 31.84 432.362 31.338 431.355 30.334C430.868 29.8647 430.482 29.3003 430.222 28.6759C429.962 28.0515 429.833 27.3803 429.843 26.704V19.821C429.838 19.5935 429.88 19.3674 429.967 19.1569C430.053 18.9464 430.182 18.7561 430.346 18.598C430.682 18.268 431.092 18.103 431.576 18.103C431.801 18.0997 432.025 18.1428 432.233 18.2297C432.44 18.3166 432.628 18.4454 432.784 18.608C433.12 18.944 433.289 19.348 433.289 19.82V22.313H436.281C436.721 22.313 437.099 22.469 437.414 22.781C437.566 22.9257 437.686 23.1003 437.767 23.2937C437.848 23.4872 437.888 23.6953 437.885 23.905C437.888 24.1146 437.848 24.3224 437.767 24.5158C437.686 24.7091 437.566 24.8838 437.415 25.029C437.102 25.329 436.715 25.497 436.287 25.497H433.279V26.703C433.279 27.176 433.444 27.578 433.776 27.909C434.108 28.24 434.51 28.405 434.984 28.405H436.534C437.007 28.405 437.414 28.575 437.751 28.911C437.914 29.0675 438.043 29.2559 438.13 29.4644C438.218 29.6728 438.261 29.897 438.258 30.123H438.267ZM423.969 27.035C423.969 28.36 423.499 29.491 422.555 30.431C422.114 30.886 421.584 31.2457 420.998 31.488C420.413 31.7303 419.784 31.8501 419.15 31.84C417.936 31.84 416.867 31.44 415.943 30.61C415.077 31.4126 413.937 31.8525 412.756 31.839C412.122 31.8487 411.493 31.7287 410.907 31.4864C410.322 31.2441 409.792 30.8846 409.35 30.43C408.894 29.9909 408.534 29.4629 408.291 28.8787C408.048 28.2945 407.927 27.6666 407.937 27.034V23.679C407.932 23.4658 407.971 23.2539 408.053 23.0569C408.135 22.8599 408.257 22.6821 408.411 22.535C408.726 22.235 409.106 22.071 409.548 22.071C409.759 22.0674 409.969 22.1067 410.164 22.1864C410.36 22.2662 410.537 22.3848 410.685 22.535C411.001 22.835 411.159 23.235 411.159 23.68V27.037C411.155 27.2465 411.195 27.4546 411.275 27.6483C411.355 27.842 411.474 28.0172 411.624 28.163C411.772 28.3122 411.948 28.4301 412.142 28.5097C412.336 28.5892 412.544 28.6288 412.754 28.626C413.184 28.626 413.554 28.473 413.854 28.163C414.004 28.0171 414.123 27.8418 414.203 27.6482C414.283 27.4545 414.322 27.2465 414.318 27.037V23.697C414.318 23.257 414.478 22.875 414.793 22.553C414.943 22.397 415.123 22.2735 415.323 22.1904C415.522 22.1073 415.737 22.0663 415.953 22.07C416.165 22.0672 416.376 22.1076 416.572 22.189C416.768 22.2703 416.945 22.3908 417.093 22.543C417.41 22.859 417.568 23.237 417.568 23.679V27.036C417.56 27.2448 417.595 27.4531 417.67 27.6479C417.746 27.8428 417.86 28.0202 418.007 28.169C418.153 28.3179 418.329 28.4352 418.523 28.5136C418.716 28.592 418.924 28.6299 419.133 28.625C419.576 28.625 419.953 28.472 420.263 28.162C420.413 28.0162 420.532 27.841 420.612 27.6473C420.692 27.4536 420.732 27.2455 420.728 27.036V23.679C420.728 23.237 420.886 22.859 421.202 22.543C421.349 22.3907 421.526 22.2702 421.722 22.1888C421.917 22.1075 422.127 22.067 422.339 22.07C422.782 22.07 423.161 22.228 423.477 22.543C423.793 22.858 423.95 23.236 423.95 23.678V27.033L423.969 27.035ZM428.624 19.435C428.627 19.6611 428.584 19.8855 428.497 20.0942C428.409 20.3028 428.28 20.4914 428.117 20.648C427.959 20.8106 427.77 20.9392 427.561 21.0261C427.352 21.1129 427.127 21.1561 426.901 21.153C426.674 21.1558 426.45 21.1124 426.241 21.0256C426.031 20.9388 425.842 20.8103 425.684 20.648C425.521 20.4913 425.392 20.3029 425.305 20.0944C425.218 19.886 425.175 19.6619 425.178 19.436C425.178 18.964 425.348 18.56 425.684 18.224C425.842 18.0613 426.031 17.9326 426.24 17.8457C426.45 17.7589 426.674 17.7158 426.901 17.719C427.127 17.7158 427.352 17.7589 427.561 17.8458C427.77 17.9326 427.959 18.0613 428.117 18.224C428.455 18.56 428.624 18.964 428.624 19.436V19.435ZM428.624 30.112C428.627 30.3382 428.583 30.5626 428.496 30.7714C428.409 30.9801 428.28 31.1689 428.117 31.326C427.959 31.4887 427.77 31.6174 427.561 31.7042C427.352 31.7911 427.127 31.8342 426.901 31.831C426.428 31.831 426.023 31.663 425.684 31.326C425.521 31.169 425.392 30.9802 425.305 30.7714C425.218 30.5626 425.175 30.3382 425.178 30.112V23.782C425.178 23.31 425.348 22.905 425.684 22.569C425.842 22.4061 426.031 22.2772 426.24 22.1902C426.449 22.1032 426.674 22.0599 426.901 22.063C427.127 22.0599 427.352 22.1032 427.561 22.1902C427.77 22.2773 427.96 22.4062 428.117 22.569C428.455 22.905 428.624 23.309 428.624 23.782V30.112ZM467.759 23.895C467.759 24.332 467.602 24.707 467.287 25.019C467.141 25.1699 466.965 25.2893 466.771 25.3698C466.577 25.4503 466.368 25.4902 466.158 25.487H463.806C463.366 25.487 462.993 25.641 462.686 25.947C462.536 26.0915 462.418 26.2652 462.339 26.4574C462.259 26.6496 462.22 26.8561 462.224 27.064V30.234C462.224 30.672 462.068 31.048 461.754 31.361C461.608 31.512 461.433 31.6316 461.239 31.7125C461.045 31.7933 460.837 31.8336 460.627 31.831C460.19 31.831 459.812 31.675 459.499 31.361C459.348 31.2156 459.228 31.0408 459.147 30.8473C459.066 30.6538 459.026 30.4457 459.029 30.236V27.066C459.019 26.439 459.139 25.8167 459.38 25.2377C459.62 24.6587 459.978 24.1353 460.429 23.7C460.867 23.2489 461.393 22.8923 461.973 22.6518C462.554 22.4114 463.178 22.2924 463.807 22.302H466.157C466.367 22.299 466.576 22.3391 466.771 22.4199C466.965 22.5008 467.141 22.6206 467.287 22.772C467.439 22.9163 467.559 23.0907 467.64 23.284C467.721 23.4774 467.761 23.6854 467.757 23.895H467.759ZM452.662 31.83C451.306 31.83 450.028 31.314 449.02 30.284C448.012 29.254 447.625 28.131 447.625 26.678C447.625 26.678 447.527 22.06 452.751 22.06C456.838 22.06 458.081 24.93 458.081 26.348C458.081 27.474 457.566 27.874 456.393 27.874H451.169C451.169 27.874 450.969 29.069 453.369 29.069H456.349C456.53 29.069 456.71 29.1047 456.877 29.174C457.045 29.2434 457.197 29.345 457.325 29.4732C457.453 29.6013 457.555 29.7535 457.624 29.9209C457.693 30.0883 457.729 30.2678 457.729 30.449C457.729 30.6302 457.693 30.8097 457.624 30.9771C457.555 31.1445 457.453 31.2967 457.325 31.4248C457.197 31.553 457.045 31.6546 456.877 31.724C456.71 31.7933 456.53 31.829 456.349 31.829H452.669L452.662 31.83ZM451.204 25.695H454.634C454.634 24.568 452.928 24.568 452.928 24.568C452.928 24.568 451.204 24.568 451.204 25.695ZM392.289 21.637C391.222 21.819 389.676 21.629 388.856 21.287C390.559 21.147 391.712 20.373 392.156 19.322C391.542 19.7 389.636 20.122 388.586 19.719L388.418 19.023C387.618 16.077 384.871 13.703 381.996 13.99L382.701 13.728C383.016 13.615 384.874 13.312 384.581 12.658C384.334 12.08 382.064 13.092 381.637 13.225C382.201 13.025 383.135 12.649 383.234 12C382.351 12.1308 381.527 12.5214 380.866 13.122C381.104 12.867 381.283 12.557 381.321 12.222C379.015 13.697 377.668 16.668 376.579 19.552C375.723 18.722 374.963 18.067 374.283 17.702C372.375 16.679 370.083 15.61 366.51 14.278C366.41 15.465 367.096 17.043 369.11 18.092C368.676 18.032 367.882 18.164 367.248 18.315C367.506 19.675 368.351 20.795 370.64 21.335C369.594 21.405 369.053 21.635 368.564 22.155C369.04 23.102 370.204 24.215 372.294 23.985C369.968 24.989 371.344 26.847 373.238 26.57C370.011 29.908 364.922 29.67 362 26.87C369.628 37.277 386.213 33.024 388.683 23C390.537 23.015 391.623 22.358 392.298 21.634L392.289 21.637Z" fill="#1DA1F2"/>
<rect x="510" width="150" height="45" rx="6" fill="#FF3C3C"/>
<path d="M632.338 15.9392H629.351V31.8215H626.417V15.9392H623.435V13.5032H632.338V15.9392ZM632.99 13.5032H636.127L637.103 21.7343C637.379 24.093 637.635 26.123 637.935 28.907H638.06C638.336 26.123 638.611 24.1413 638.882 21.7343L639.887 13.5032H643L639.989 31.7925H636.025L632.99 13.5032ZM556.827 15.3398C556.654 14.6937 556.315 14.1038 555.845 13.6283C555.375 13.1528 554.788 12.8081 554.144 12.6283C551.761 12 542.23 12 542.23 12C542.23 12 532.694 12 530.311 12.6283C529.665 12.8037 529.077 13.1463 528.606 13.6215C528.135 14.0967 527.798 14.6878 527.628 15.335C527 17.7178 527 22.6623 527 22.6623C527 22.6623 527 27.631 527.628 29.9897C527.803 30.6382 528.145 31.2296 528.62 31.7045C529.095 32.1795 529.686 32.5215 530.335 32.6963C532.694 33.3247 542.225 33.3247 542.225 33.3247C542.225 33.3247 551.761 33.3247 554.144 32.6963C554.787 32.5184 555.374 32.1783 555.848 31.7086C556.322 31.2389 556.667 30.6553 556.851 30.0138C557.479 27.631 557.479 22.6865 557.479 22.6865C557.479 22.6865 557.455 17.7178 556.827 15.3398ZM539.19 27.2298V18.0948L547.116 22.6623L539.19 27.2298ZM571.23 31.4203C570.578 30.9679 570.12 30.2861 569.949 29.5112C569.674 28.3953 569.547 27.2479 569.572 26.0988V24.1655C569.545 22.9958 569.697 21.8289 570.021 20.7048C570.241 19.9338 570.719 19.2615 571.375 18.8005C572.114 18.3751 572.958 18.1658 573.811 18.1963C574.792 18.1963 575.594 18.3993 576.194 18.8005C576.822 19.2742 577.301 19.9267 577.499 20.7048C577.798 21.8358 577.953 22.9862 577.9 24.1655V26.0988C577.924 27.254 577.803 28.4092 577.499 29.5353C577.301 30.3052 576.839 30.9811 576.194 31.4445C575.594 31.8457 574.763 32.0438 573.738 32.0438C572.685 32.0197 571.829 31.8215 571.225 31.4155L571.23 31.4203ZM574.613 29.313C574.792 28.8828 574.865 28.153 574.865 27.1767V23.0393C574.894 22.328 574.809 21.6165 574.613 20.932C574.561 20.7391 574.448 20.5684 574.29 20.4462C574.132 20.324 573.938 20.257 573.738 20.2553C573.541 20.2563 573.349 20.3234 573.194 20.4461C573.039 20.5688 572.929 20.7398 572.883 20.932C572.685 21.6087 572.607 22.3337 572.632 23.0393V27.2008C572.632 28.182 572.709 28.907 572.883 29.3372C572.979 29.7383 573.337 30.0138 573.763 29.9897C573.959 29.9876 574.15 29.92 574.304 29.7974C574.458 29.6749 574.567 29.5044 574.613 29.313ZM617.533 26.123V26.7997C617.533 27.4522 617.562 28.0805 617.611 28.733C617.632 29.0668 617.746 29.3881 617.939 29.661C618.036 29.7626 618.153 29.842 618.283 29.8938C618.413 29.9455 618.553 29.9683 618.693 29.9607C618.882 29.9736 619.071 29.9306 619.236 29.8369C619.401 29.7432 619.535 29.603 619.621 29.4338C619.795 29.0858 619.872 28.5058 619.897 27.6793L622.478 27.8533C622.502 28.0133 622.511 28.175 622.507 28.3367C622.507 29.5595 622.178 30.4875 621.501 31.0917C620.825 31.6958 619.872 31.9955 618.64 31.9955C617.161 31.9955 616.132 31.517 615.532 30.5938C614.933 29.6707 614.628 28.2303 614.628 26.2728V23.9432C614.628 21.9325 614.928 20.4777 615.556 19.5497C616.185 18.6217 617.238 18.1722 618.717 18.1722C619.747 18.1722 620.549 18.3703 621.1 18.7522C621.68 19.1775 622.101 19.801 622.28 20.5067C622.531 21.5845 622.657 22.7107 622.603 23.8175V26.0988L617.538 26.123H617.533ZM617.915 20.5067C617.729 20.7814 617.623 21.1029 617.611 21.4347C617.562 22.0861 617.538 22.739 617.538 23.3922V24.3443H619.747V23.3922C619.747 22.7397 619.718 22.0872 619.645 21.4347C619.624 21.1008 619.51 20.7795 619.317 20.5067C619.229 20.4094 619.12 20.3339 618.999 20.2861C618.877 20.2383 618.746 20.2195 618.616 20.2312C618.485 20.2175 618.354 20.2354 618.232 20.2833C618.11 20.3313 618.001 20.4079 617.915 20.5067ZM563.903 25.8717L560.49 13.5032H563.477L564.681 19.1002C564.98 20.4777 565.208 21.6618 565.357 22.6382H565.454C565.56 21.9325 565.783 20.7822 566.131 19.1243L567.387 13.5032H570.374L566.914 25.8765V31.8215H563.927V25.8765H563.903V25.8717ZM587.61 18.4477V31.8215H585.251L585 30.1878H584.923C584.294 31.4203 583.318 32.0438 582.042 32.0438C581.162 32.0438 580.51 31.7442 580.084 31.169C579.654 30.589 579.456 29.6852 579.456 28.4333V18.4477H582.467V28.2593C582.446 28.6937 582.513 29.128 582.666 29.5353C582.723 29.6571 582.816 29.7584 582.933 29.8257C583.049 29.8931 583.184 29.9233 583.318 29.9123C583.589 29.9059 583.851 29.8184 584.072 29.661C584.304 29.5185 584.487 29.3097 584.599 29.0617V18.4477H587.61ZM603.038 18.4477V31.8215H600.679L600.428 30.1878H600.351C599.722 31.4203 598.746 32.0438 597.47 32.0438C596.59 32.0438 595.938 31.7442 595.513 31.169C595.082 30.589 594.884 29.6852 594.884 28.4333V18.4477H597.895V28.2593C597.874 28.6937 597.941 29.128 598.093 29.5353C598.151 29.6571 598.244 29.7584 598.361 29.8257C598.477 29.8931 598.612 29.9233 598.746 29.9123C599.017 29.9059 599.279 29.8184 599.5 29.661C599.732 29.5185 599.915 29.3097 600.027 29.0617V18.4477H603.038ZM595.788 15.9343H592.801V31.8215H589.867V15.9392H586.88V13.5032H595.788V15.9392V15.9343ZM612.995 20.5792C612.821 19.7527 612.521 19.1292 612.12 18.7473C611.651 18.3505 611.051 18.1436 610.438 18.1673C609.882 18.1647 609.338 18.3335 608.882 18.6507C608.409 18.9516 608.028 19.3762 607.78 19.8783H607.755V12.8265H604.87V31.8215H607.354L607.654 30.5648H607.726C607.962 31.0215 608.329 31.3969 608.78 31.6427C609.258 31.9013 609.793 32.039 610.336 32.0438C610.808 32.055 611.273 31.9284 611.674 31.6794C612.075 31.4305 612.394 31.07 612.593 30.6422C613.072 29.7142 613.318 28.2303 613.318 26.2487V24.1413C613.301 22.9474 613.193 21.7566 612.995 20.5792ZM610.24 26.0263C610.24 26.7755 610.211 27.5537 610.114 28.3077C610.082 28.7292 609.943 29.1354 609.708 29.487C609.618 29.5981 609.503 29.6871 609.374 29.7474C609.244 29.8077 609.102 29.8377 608.959 29.835C608.721 29.8429 608.486 29.7825 608.282 29.661C608.073 29.531 607.9 29.3497 607.78 29.1342V21.5603C607.874 21.2186 608.056 20.9073 608.306 20.6565C608.408 20.545 608.532 20.456 608.67 20.3953C608.808 20.3345 608.958 20.3033 609.109 20.3037C609.384 20.3037 609.66 20.4293 609.81 20.6565C610.012 21.0335 610.138 21.4298 610.162 21.86C610.235 22.6623 610.259 23.4647 610.259 24.267L610.235 26.0263H610.24Z" fill="white"/>
<rect x="680" width="150" height="45" rx="6" fill="white"/>
<path d="M807.352 34.8298C807.353 34.8298 807.355 34.8298 807.357 34.8298C807.622 34.8298 807.841 34.6113 807.841 34.346C807.841 34.3366 807.841 34.3274 807.84 34.318C807.84 33.9552 807.621 33.7818 807.171 33.7818H806.445V35.6819H806.719V34.8536H807.054L807.061 34.8636L807.582 35.6819H807.875L807.315 34.835L807.352 34.8298ZM807.036 34.6394H806.719V33.9971H807.121C807.328 33.9971 807.564 34.0309 807.564 34.3024C807.564 34.6145 807.325 34.6394 807.034 34.6394H807.036ZM701 14.0542H705.029V28.7321H712.489V32.4507H701V14.0542ZM714.271 19.9773H718.142V32.4438H714.271V19.9773ZM716.206 13.7795C717.438 13.7798 718.452 14.7934 718.452 16.0252C718.452 17.2571 717.438 18.2708 716.206 18.2708C714.974 18.2708 713.96 17.2571 713.96 16.0252C713.96 14.7933 714.974 13.7795 716.206 13.7795C716.206 13.7795 716.206 13.7795 716.206 13.7795ZM734.335 14.0513H738.206V25.0456L742.594 19.9717H747.34L742.259 25.7432L747.233 32.449H742.367L738.258 26.2867H738.207V32.4482H734.336L734.335 14.0513ZM720.288 19.9786H724.006V21.6822H724.059C724.814 20.3878 726.226 19.612 727.724 19.6684C731.65 19.6684 732.372 22.2512 732.372 25.6065V32.443H728.501V26.3819C728.501 24.9351 728.475 23.0754 726.485 23.0754C724.473 23.0754 724.162 24.6508 724.162 26.2767V32.4414H720.291L720.288 19.9786Z" fill="#0A66C2"/>
<path d="M755.536 24.7668C755.536 24.7485 755.536 24.7302 755.536 24.712C755.536 23.4387 754.489 22.391 753.215 22.391C753.197 22.391 753.178 22.3912 753.159 22.3917C751.761 22.3046 750.534 23.3701 750.424 24.7668H755.536ZM758.815 30.291C757.513 31.8698 755.567 32.7814 753.521 32.7714C749.65 32.7714 746.551 30.1874 746.551 26.1861C746.551 22.1848 749.65 19.602 753.521 19.602C757.139 19.602 759.408 22.1827 759.408 26.1861V27.3999H750.424C750.654 28.8167 751.906 29.8583 753.341 29.827C754.459 29.82 755.501 29.2456 756.103 28.3035L758.815 30.291ZM767.477 22.9969C765.542 22.9969 764.38 24.2893 764.38 26.1724C764.38 28.0556 765.541 29.3491 767.477 29.3491C769.413 29.3491 770.577 28.0587 770.577 26.1724C770.577 24.286 769.415 22.9969 767.477 22.9969ZM774.141 32.4476H770.577V30.7943H770.524C769.619 32.0123 768.193 32.7393 766.676 32.7573C762.956 32.7573 760.506 30.0729 760.506 26.2768C760.506 22.7905 762.674 19.5891 766.238 19.5891C767.841 19.5891 769.337 20.0274 770.215 21.2424H770.266V14.0563H774.14L774.141 32.4476ZM800.274 32.4549H796.403V26.3926C796.403 24.947 796.377 23.086 794.39 23.086C792.374 23.086 792.065 24.661 792.065 26.2873V32.4544H788.194V19.9879H791.91V21.6916H791.962C792.719 20.3978 794.131 19.6223 795.629 19.6779C799.552 19.6779 800.276 22.2586 800.276 25.616L800.274 32.4549ZM783.826 18.2838C783.826 18.2838 783.826 18.2838 783.826 18.2838C782.593 18.2838 781.579 17.2698 781.579 16.0375C781.579 14.8051 782.593 13.791 783.826 13.791C785.058 13.791 786.072 14.8048 786.072 16.037C786.072 16.0371 786.072 16.0372 786.072 16.0375C786.072 17.2696 785.058 18.2837 783.826 18.2838ZM785.762 32.4549H781.887V19.9879H785.762V32.4549ZM802.204 10.1961H779.941C778.896 10.1843 778.026 11.0341 778.014 12.0792V34.4343C778.026 35.48 778.896 36.3307 779.941 36.3195H802.204C803.252 36.3327 804.125 35.4821 804.139 34.4343V12.0776C804.125 11.0304 803.251 10.1807 802.204 10.1945V10.1961ZM807.113 32.9416C806.142 32.9509 805.349 33.7521 805.349 34.723C805.349 35.7003 806.153 36.5046 807.13 36.5046C808.108 36.5046 808.912 35.7003 808.912 34.723C808.912 33.7521 808.118 32.9509 807.147 32.9416H807.113ZM807.113 36.3005C807.104 36.3006 807.096 36.3008 807.086 36.3008C806.23 36.3008 805.525 35.5956 805.525 34.7386C805.525 33.8817 806.23 33.1765 807.086 33.1765C807.934 33.1765 808.635 33.8656 808.649 34.7126V34.7388C808.666 35.5771 807.992 36.2816 807.154 36.2997H807.113" fill="#0A66C2"/>
<defs>
<clipPath id="clip0_1271_1642">
<rect width="150" height="45" rx="6" fill="white"/>
</clipPath>
</defs>
</svg>
